  0
SECTION
  2
HEADER
  9
$ACADVER
  1
AC1018
  9
$DWGCODEPAGE
  3
ANSI_1252
  9
$INSUNITS
 70
4
  9
$MEASUREMENT
 70
1
  9
$CLAYER
  8
0
  9
$HANDSEED
  5
F04
  0
ENDSEC
  0
SECTION
  2
CLASSES
  0
ENDSEC
  0
SECTION
  2
TABLES
  0
TABLE
  2
VPORT
  5
8
330
0
100
AcDbSymbolTable
 70
1
  0
VPORT
  5
17
330
8
100
AcDbSymbolTableRecord
100
AcDbViewportTableRecord
  2
*Active
 70
0
 10
0
 20
0
 11
1
 21
1
 12
0
 22
0
 13
0
 23
0
 14
0.5
 24
0.5
 15
0.5
 25
0.5
 16
0
 26
0
 36
1
 17
0
 27
0
 37
0
 40
1000
 41
1.34
 42
50
 43
0
 44
0
 50
0
 51
0
 71
0
 72
1000
 73
1
 74
3
 75
0
 76
0
 77
0
 78
0
281
0
  0
ENDTAB
  0
TABLE
  2
LTYPE
  5
2
330
0
100
AcDbSymbolTable
 70
3
  0
LTYPE
  5
200
330
2
100
AcDbSymbolTableRecord
100
AcDbLinetypeTableRecord
  2
ByBlock
 70
0
  3

 72
65
 73
0
 40
0
  0
LTYPE
  5
201
330
2
100
AcDbSymbolTableRecord
100
AcDbLinetypeTableRecord
  2
ByLayer
 70
0
  3

 72
65
 73
0
 40
0
  0
LTYPE
  5
202
330
2
100
AcDbSymbolTableRecord
100
AcDbLinetypeTableRecord
  2
Continuous
 70
0
  3

 72
65
 73
0
 40
0
  0
ENDTAB
  0
TABLE
  2
LAYER
  5
1
330
0
100
AcDbSymbolTable
 70
1
  0
LAYER
  5
300
330
1
100
AcDbSymbolTableRecord
100
AcDbLayerTableRecord
  2
0
 70
0
 62
7
  6
Continuous
290
1
370
-3
390
F03
  0
ENDTAB
  0
TABLE
  2
STYLE
  5
5
330
0
100
AcDbSymbolTable
 70
1
  0
STYLE
  5
400
330
5
100
AcDbSymbolTableRecord
100
AcDbTextStyleTableRecord
  2
Standard
 70
0
 40
0
 41
1
 50
0
 71
0
 42
2.5
  3
txt
  4

  0
ENDTAB
  0
TABLE
  2
VIEW
  5
7
330
0
100
AcDbSymbolTable
 70
0
  0
ENDTAB
  0
TABLE
  2
UCS
  5
6
330
0
100
AcDbSymbolTable
 70
0
  0
ENDTAB
  0
TABLE
  2
APPID
  5
3
330
0
100
AcDbSymbolTable
 70
1
  0
APPID
  5
2A
330
3
100
AcDbSymbolTableRecord
100
AcDbRegAppTableRecord
  2
ACAD
 70
0
  0
ENDTAB
  0
TABLE
  2
DIMSTYLE
  5
4
330
0
100
AcDbSymbolTable
 70
1
100
AcDbDimStyleTable
  0
DIMSTYLE
105
500
330
4
100
AcDbSymbolTableRecord
100
AcDbDimStyleTableRecord
  2
Standard
 70
0
 40
1
 41
2.5
 42
0.625
140
2.5
147
0.625
271
2
278
46
340
400
371
-1
372
-1
  0
ENDTAB
  0
TABLE
  2
BLOCK_RECORD
  5
9
330
0
100
AcDbSymbolTable
 70
2
  0
BLOCK_RECORD
  5
1A
330
9
100
AcDbSymbolTableRecord
100
AcDbBlockTableRecord
  2
*Model_Space
  0
BLOCK_RECORD
  5
1B
330
9
100
AcDbSymbolTableRecord
100
AcDbBlockTableRecord
  2
*Paper_Space
  0
ENDTAB
  0
ENDSEC
  0
SECTION
  2
BLOCKS
  0
BLOCK
  5
18
330
1A
100
AcDbEntity
  8
0
100
AcDbBlockBegin
  2
*Model_Space
 70
0
 10
0
 20
0
 30
0
  3
*Model_Space
  1

  0
ENDBLK
  5
19
330
1A
100
AcDbEntity
  8
0
100
AcDbBlockEnd
  0
BLOCK
  5
1C
330
1B
100
AcDbEntity
  8
0
100
AcDbBlockBegin
  2
*Paper_Space
 70
0
 10
0
 20
0
 30
0
  3
*Paper_Space
  1

  0
ENDBLK
  5
1D
330
1B
100
AcDbEntity
  8
0
100
AcDbBlockEnd
  0
ENDSEC
  0
SECTION
  2
ENTITIES
  0
SPLINE
  5
10
330
1A
100
AcDbEntity
  8
0
100
AcDbSpline
210
0
220
0
230
1
 70
8
 71
3
 72
17
 73
13
 74
5
 42
1e-7
 43
1e-7
 44
0.25
 40
0
 40
0
 40
0
 40
0
 40
0.25
 40
0.25
 40
0.25
 40
0.5
 40
0.5
 40
0.5
 40
0.75
 40
0.75
 40
0.75
 40
1
 40
1
 40
1
 40
1
 10
140
 20
0
 30
0
 10
139.928018424925
 20
0.0419892521270058
 30
0
 10
115.336375839505
 20
6.26117280917547
 30
0
 10
100
 20
15
 30
0
 10
84.6636241604946
 20
23.7388271908245
 30
0
 10
78.5825150669034
 20
34.9972980154251
 30
0
 10
70
 20
55
 30
0
 10
61.4174849330966
 20
75.0027019845749
 30
0
 10
50.3335638928809
 20
103.749635129124
 30
0
 10
35
 20
85
 30
0
 10
19.6664361071191
 20
66.2503648708759
 30
0
 10
0.083229361573153
 20
0.00416146807866369
 30
0
 10
0
 20
0
 30
0
 11
140
 21
0
 31
0
 11
100
 21
15
 31
0
 11
70
 21
55
 31
0
 11
35
 21
85
 31
0
 11
0
 21
0
 31
0
 12
-0.863778900898433
 22
0.503871025524086
 32
0
 13
-0.998752338877845
 23
-0.0499376169438922
 33
0
  0
SPLINE
  5
20
330
1A
100
AcDbEntity
  8
0
100
AcDbSpline
210
0
220
0
230
1
 70
11
 71
3
 72
17
 73
13
 74
4
 42
1e-7
 43
1e-7
 44
0
 40
0
 40
0
 40
0
 40
0
 40
0.260872104757342
 40
0.260872104757342
 40
0.260872104757342
 40
0.504745737938376
 40
0.504745737938376
 40
0.504745737938376
 40
0.769697113780109
 40
0.769697113780109
 40
0.769697113780109
 40
1
 40
1
 40
1
 40
1
 10
0
 20
200
 30
0
 10
27.3049654788653
 20
182.933373228433
 30
0
 10
73.2889393125429
 20
195.522539075536
 30
0
 10
90
 20
225
 30
0
 10
105.622165075679
 20
252.556704459789
 30
0
 10
95.6619848516516
 20
294.872520663404
 30
0
 10
70
 20
310
 30
0
 10
42.120076678287
 20
326.434931529778
 30
0
 10
-4.2931242366879
 20
310.778711347666
 30
0
 10
-20
 20
280
 30
0
 10
-33.6528403005871
 20
253.246313460435
 30
0
 10
-24.1053460421402
 20
215.066744706896
 30
0
 10
0
 20
200
 30
0
 11
0
 21
200
 31
0
 11
90
 21
225
 31
0
 11
70
 21
310
 31
0
 11
-20
 21
280
 31
0
  0
SPLINE
  5
30
330
1A
100
AcDbEntity
  8
0
100
AcDbSpline
210
0
220
0
230
1
 70
12
 71
3
 72
8
 73
4
 74
0
 42
1e-7
 43
1e-7
 44
0
 40
0
 40
0
 40
0
 40
0
 40
1
 40
1
 40
1
 40
1
 41
1
 41
2.5
 41
1.3
 41
1
 10
220
 20
0
 30
0
 10
255
 20
95
 30
0
 10
310
 20
-20
 30
0
 10
360
 20
0
 30
0
  0
SPLINE
  5
50
330
1A
100
AcDbEntity
  8
0
 62
3
100
AcDbSpline
210
0
220
0
230
1
 70
8
 71
3
 72
8
 73
4
 74
0
 42
1e-7
 43
1e-7
 44
0
 40
0
 40
0
 40
0
 40
0
 40
1
 40
1
 40
1
 40
1
 10
420
 20
0
 30
0
 10
450
 20
80
 30
0
 10
510
 20
-20
 30
0
 10
560
 20
0
 30
0
  0
LWPOLYLINE
  5
61
330
1A
100
AcDbEntity
  8
0
100
AcDbPolyline
 90
33
 70
0
 10
200
 20
-300
 10
209.739185927919
 20
-269.886371456236
 10
214.641380650889
 20
-256.093760752325
 10
219.582697484671
 20
-243.818194329978
 10
224.576177132869
 20
-233.565353616384
 10
229.634860299087
 20
-225.840920038731
 10
232.19272842133
 20
-223.084881371878
 10
234.771787686929
 20
-221.150575024207
 10
237.373668183836
 20
-220.101211174114
 10
240
 20
-220
 10
241.930527887182
 20
-220.550451859468
 10
243.875159076345
 20
-221.606278840229
 10
247.807721578213
 20
-225.106412585259
 10
251.799667940812
 20
-230.24511007434
 10
255.852978599347
 20
-236.767080146722
 10
264.151614545053
 20
-252.939673398392
 10
272.719472896984
 20
-271.581863054274
 10
281.572397136793
 20
-290.651319828371
 10
290.72623074613
 20
-308.105714434689
 10
295.420939652388
 20
-315.589035523056
 10
300.196817206648
 20
-321.90271758723
 10
305.055843844117
 20
-326.791469466461
 10
310
 20
-330
 10
314.094534772486
 20
-331.231709843811
 10
318.243353137394
 20
-331.257282298497
 10
322.442836188562
 20
-330.157126523333
 10
326.68936501983
 20
-328.011651677595
 10
330.979320725035
 20
-324.901266920557
 10
335.309084398017
 20
-320.906381411494
 10
344.073560022662
 20
-310.584744774394
 10
352.953840644476
 20
-297.690015040495
 10
361.920975014164
 20
-282.865465483996
 10
380
 20
-250
  0
SPLINE
  5
70
330
1A
100
AcDbEntity
  8
0
100
AcDbSpline
210
0
220
0
230
1
 70
8
 71
3
 72
14
 73
10
 74
0
 42
1e-7
 43
1e-7
 44
0
 40
0
 40
0
 40
0
 40
0
 40
0.185400307078268
 40
0.45
 40
0.45
 40
0.45
 40
0.516517945955128
 40
0.824451095282037
 40
1
 40
1
 40
1
 40
1
 10
-2.19078570045935e-15
 20
-500
 30
0
 10
10.4242201903602
 20
-463.808278440085
 30
0
 10
35.7256835999209
 20
-375.964439567225
 30
0
 10
53.5296427956515
 20
-515.374800523936
 30
0
 10
63.0110606891645
 20
-547.379098182021
 30
0
 10
65.3946025446164
 20
-555.424686287
 30
0
 10
78.4610932117549
 20
-582.939051784157
 30
0
 10
95.9359736237405
 20
-381.312013982147
 30
0
 10
135.598733278309
 20
-468.384571814762
 30
0
 10
150
 20
-500
 30
0
  0
SPLINE
  5
80
330
1A
100
AcDbEntity
  8
0
100
AcDbSpline
210
0
220
0
230
1
 70
8
 71
4
 72
12
 73
7
 74
0
 42
1e-7
 43
1e-7
 44
0
 40
0
 40
0
 40
0
 40
0
 40
0
 40
0.5
 40
0.5
 40
1
 40
1
 40
1
 40
1
 40
1
 10
0
 20
-700
 30
0
 10
11.25
 20
-673.749999999999
 30
0
 10
25
 20
-667.5
 30
0
 10
55.625
 20
-678.125
 30
0
 10
88.7499999999999
 20
-701.249999999999
 30
0
 10
105
 20
-707.5
 30
0
 10
120
 20
-700
 30
0
  0
SPLINE
  5
90
330
1A
100
AcDbEntity
  8
0
100
AcDbSpline
210
0
220
0
230
1
 70
8
 71
3
 72
8
 73
4
 74
0
 42
1e-7
 43
1e-7
 44
0
 40
0
 40
0
 40
0
 40
0
 40
1
 40
1
 40
1
 40
1
 10
0
 20
-900
 30
0
 10
15
 20
-865
 30
0
 10
100
 20
-910
 30
0
 10
120
 20
-900
 30
0
  0
SPLINE
  5
91
330
1A
100
AcDbEntity
  8
0
100
AcDbSpline
210
0
220
0
230
1
 70
12
 71
3
 72
9
 73
5
 74
0
 42
1e-7
 43
1e-7
 44
0
 40
0
 40
0
 40
0
 40
0
 40
0.5
 40
1
 40
1
 40
1
 40
1
 41
1
 41
1.25
 41
2
 41
2.25
 41
2.5
 10
180
 20
-900
 30
0
 10
198
 20
-858
 30
0
 10
263.125
 20
-896.875
 30
0
 10
282.222222222222
 20
-908.888888888889
 30
0
 10
300
 20
-900
 30
0
  0
SPLINE
  5
92
330
1A
100
AcDbEntity
  8
0
100
AcDbSpline
210
0
220
0
230
1
 70
12
 71
2
 72
6
 73
3
 74
0
 42
1e-7
 43
1e-7
 44
0
 40
0
 40
0
 40
0
 40
1
 40
1
 40
1
 41
1
 41
1.25
 41
1
 10
360
 20
-900
 30
0
 10
390
 20
-830
 30
0
 10
480
 20
-900
 30
0
  0
SPLINE
  5
93
330
1A
100
AcDbEntity
  8
0
100
AcDbSpline
210
0
220
0
230
1
 70
11
 71
3
 72
12
 73
8
 74
0
 42
1e-7
 43
1e-7
 44
0
 40
0
 40
0.0833333333333334
 40
0.166666666666667
 40
0.25
 40
0.333333333333333
 40
0.5
 40
0.583333333333333
 40
0.666666666666667
 40
0.75
 40
0.833333333333333
 40
1
 40
1.08333333333333
 10
540
 20
-900
 30
0
 10
570
 20
-830
 30
0
 10
660
 20
-920
 30
0
 10
610
 20
-960
 30
0
 10
555
 20
-945
 30
0
 10
540
 20
-900
 30
0
 10
570
 20
-830
 30
0
 10
660
 20
-920
 30
0
  0
SPLINE
  5
94
330
1A
100
AcDbEntity
  8
0
100
AcDbSpline
210
0
220
0
230
1
 70
8
 71
2
 72
7
 73
4
 74
0
 42
1e-7
 43
1e-7
 44
0
 40
0
 40
0
 40
0
 40
0.333333333333333
 40
1
 40
1
 40
1
 10
720
 20
-900
 30
0
 10
750
 20
-830
 30
0
 10
845
 20
-930
 30
0
 10
880
 20
-900
 30
0
  0
ENDSEC
  0
SECTION
  2
OBJECTS
  0
DICTIONARY
  5
F00
330
0
100
AcDbDictionary
281
1
  3
ACAD_GROUP
350
F01
  3
ACAD_PLOTSTYLENAME
350
F02
  0
DICTIONARY
  5
F01
330
F00
100
AcDbDictionary
281
1
  0
ACDBDICTIONARYWDFLT
  5
F02
330
F00
100
AcDbDictionary
281
1
  3
Normal
350
F03
100
AcDbDictionaryWithDefault
340
F03
  0
ACDBPLACEHOLDER
  5
F03
330
F02
  0
ENDSEC
  0
EOF
