  0
SECTION
  2
HEADER
  9
$ACADVER
  1
AC1015
  9
$INSUNITS
 70
4
  0
ENDSEC
  0
SECTION
  2
ENTITIES
  0
LINE
  5
10
100
AcDbEntity
  8
0
100
AcDbLine
 10
10
 20
10
 30
0
 11
180
 21
90
 31
0
  0
LWPOLYLINE
  5
11
100
AcDbEntity
  8
0
100
AcDbPolyline
 90
4
 70
1
 10
0
 20
1000
 10
1000
 20
1000
 10
1000
 20
1500
 10
0
 20
1500
  0
LINE
  5
12
100
AcDbEntity
  8
0
100
AcDbLine
 10
510
 20
760
 30
0
 11
680
 21
840
 31
0
  0
LWPOLYLINE
  5
13
100
AcDbEntity
  8
0
100
AcDbPolyline
 90
4
 70
1
 10
500
 20
1750
 10
1500
 20
1750
 10
1500
 20
2250
 10
500
 20
2250
  0
LINE
  5
14
100
AcDbEntity
  8
0
100
AcDbLine
 10
-290
 20
110
 30
0
 11
-120
 21
190
 31
0
  0
LWPOLYLINE
  5
15
100
AcDbEntity
  8
0
100
AcDbPolyline
 90
4
 70
1
 10
-300
 20
1100
 10
700
 20
1100
 10
700
 20
1600
 10
-300
 20
1600
  0
ENDSEC
  0
EOF
