  0
SECTION
  2
HEADER
  9
$ACADVER
  1
AC1018
  9
$DWGCODEPAGE
  3
ANSI_1252
  9
$INSUNITS
 70
4
  9
$MEASUREMENT
 70
1
  9
$CLAYER
  8
0
  9
$HANDSEED
  5
F04
  0
ENDSEC
  0
SECTION
  2
CLASSES
  0
ENDSEC
  0
SECTION
  2
TABLES
  0
TABLE
  2
VPORT
  5
8
330
0
100
AcDbSymbolTable
 70
1
  0
VPORT
  5
17
330
8
100
AcDbSymbolTableRecord
100
AcDbViewportTableRecord
  2
*Active
 70
0
 10
0
 20
0
 11
1
 21
1
 12
0
 22
0
 13
0
 23
0
 14
0.5
 24
0.5
 15
0.5
 25
0.5
 16
0
 26
0
 36
1
 17
0
 27
0
 37
0
 40
1000
 41
1.34
 42
50
 43
0
 44
0
 50
0
 51
0
 71
0
 72
1000
 73
1
 74
3
 75
0
 76
0
 77
0
 78
0
281
0
  0
ENDTAB
  0
TABLE
  2
LTYPE
  5
2
330
0
100
AcDbSymbolTable
 70
3
  0
LTYPE
  5
200
330
2
100
AcDbSymbolTableRecord
100
AcDbLinetypeTableRecord
  2
ByBlock
 70
0
  3

 72
65
 73
0
 40
0
  0
LTYPE
  5
201
330
2
100
AcDbSymbolTableRecord
100
AcDbLinetypeTableRecord
  2
ByLayer
 70
0
  3

 72
65
 73
0
 40
0
  0
LTYPE
  5
202
330
2
100
AcDbSymbolTableRecord
100
AcDbLinetypeTableRecord
  2
Continuous
 70
0
  3

 72
65
 73
0
 40
0
  0
ENDTAB
  0
TABLE
  2
LAYER
  5
1
330
0
100
AcDbSymbolTable
 70
1
  0
LAYER
  5
300
330
1
100
AcDbSymbolTableRecord
100
AcDbLayerTableRecord
  2
0
 70
0
 62
7
  6
Continuous
290
1
370
-3
390
F03
  0
ENDTAB
  0
TABLE
  2
STYLE
  5
5
330
0
100
AcDbSymbolTable
 70
1
  0
STYLE
  5
400
330
5
100
AcDbSymbolTableRecord
100
AcDbTextStyleTableRecord
  2
Standard
 70
0
 40
0
 41
1
 50
0
 71
0
 42
2.5
  3
txt
  4

  0
ENDTAB
  0
TABLE
  2
VIEW
  5
7
330
0
100
AcDbSymbolTable
 70
0
  0
ENDTAB
  0
TABLE
  2
UCS
  5
6
330
0
100
AcDbSymbolTable
 70
0
  0
ENDTAB
  0
TABLE
  2
APPID
  5
3
330
0
100
AcDbSymbolTable
 70
1
  0
APPID
  5
2A
330
3
100
AcDbSymbolTableRecord
100
AcDbRegAppTableRecord
  2
ACAD
 70
0
  0
ENDTAB
  0
TABLE
  2
DIMSTYLE
  5
4
330
0
100
AcDbSymbolTable
 70
1
100
AcDbDimStyleTable
  0
DIMSTYLE
105
500
330
4
100
AcDbSymbolTableRecord
100
AcDbDimStyleTableRecord
  2
Standard
 70
0
 40
1
 41
2.5
 42
0.625
140
2.5
147
0.625
271
2
278
46
340
400
371
-1
372
-1
  0
ENDTAB
  0
TABLE
  2
BLOCK_RECORD
  5
9
330
0
100
AcDbSymbolTable
 70
2
  0
BLOCK_RECORD
  5
1A
330
9
100
AcDbSymbolTableRecord
100
AcDbBlockTableRecord
  2
*Model_Space
  0
BLOCK_RECORD
  5
1B
330
9
100
AcDbSymbolTableRecord
100
AcDbBlockTableRecord
  2
*Paper_Space
  0
ENDTAB
  0
ENDSEC
  0
SECTION
  2
BLOCKS
  0
BLOCK
  5
18
330
1A
100
AcDbEntity
  8
0
100
AcDbBlockBegin
  2
*Model_Space
 70
0
 10
0
 20
0
 30
0
  3
*Model_Space
  1

  0
ENDBLK
  5
19
330
1A
100
AcDbEntity
  8
0
100
AcDbBlockEnd
  0
BLOCK
  5
1C
330
1B
100
AcDbEntity
  8
0
100
AcDbBlockBegin
  2
*Paper_Space
 70
0
 10
0
 20
0
 30
0
  3
*Paper_Space
  1

  0
ENDBLK
  5
1D
330
1B
100
AcDbEntity
  8
0
100
AcDbBlockEnd
  0
ENDSEC
  0
SECTION
  2
ENTITIES
  0
LINE
  5
10
330
1A
100
AcDbEntity
  8
0
 62
1
370
50
100
AcDbLine
 10
0
 20
4600
 30
0
 11
90
 21
4600
 31
0
  0
LINE
  5
11
330
1A
100
AcDbEntity
  8
0
 62
1
370
50
100
AcDbLine
 10
100
 20
4610
 30
0
 11
100
 21
4700
 31
0
  0
RAY
  5
20
330
1A
100
AcDbEntity
  8
0
 62
1
370
50
100
AcDbRay
 10
90
 20
4800
 30
0
 11
-1
 21
0
 31
0
  0
LINE
  5
21
330
1A
100
AcDbEntity
  8
0
 62
1
370
50
100
AcDbLine
 10
100
 20
4810
 30
0
 11
100
 21
4900
 31
0
  0
RAY
  5
30
330
1A
100
AcDbEntity
  8
0
 62
1
370
50
100
AcDbRay
 10
0
 20
5000
 30
0
 11
4
 21
0
 31
0
  0
LINE
  5
31
330
1A
100
AcDbEntity
  8
0
 62
1
370
50
100
AcDbLine
 10
100
 20
5000
 30
0
 11
100
 21
5100
 31
0
  0
XLINE
  5
40
330
1A
100
AcDbEntity
  8
0
 62
1
370
50
100
AcDbXline
 10
0
 20
5200
 30
0
 11
4
 21
0
 31
0
  0
LINE
  5
41
330
1A
100
AcDbEntity
  8
0
 62
1
370
50
100
AcDbLine
 10
100
 20
5200
 30
0
 11
100
 21
5300
 31
0
  0
LINE
  5
50
330
1A
100
AcDbEntity
  8
0
 62
1
370
50
100
AcDbLine
 10
0
 20
5400
 30
0
 11
90
 21
5400
 31
0
  0
RAY
  5
51
330
1A
100
AcDbEntity
  8
0
 62
1
370
50
100
AcDbRay
 10
100
 20
5410
 30
0
 11
0
 21
1
 31
0
  0
ARC
  5
52
330
1A
100
AcDbEntity
  8
0
 62
1
100
AcDbCircle
 10
90
 20
4610
 30
0
 40
10
100
AcDbArc
 50
269.999999999994
 51
0
  0
ARC
  5
53
330
1A
100
AcDbEntity
  8
0
 62
1
100
AcDbCircle
 10
90
 20
4810
 30
0
 40
10
100
AcDbArc
 50
269.999999999994
 51
0
  0
ARC
  5
54
330
1A
100
AcDbEntity
  8
0
 62
1
100
AcDbCircle
 10
90
 20
5410
 30
0
 40
10
100
AcDbArc
 50
269.999999999994
 51
0
  0
ARC
  5
55
330
1A
100
AcDbEntity
  8
0
 62
1
100
AcDbCircle
 10
90
 20
5010
 30
0
 40
10
100
AcDbArc
 50
269.999999999994
 51
0
  0
ARC
  5
56
330
1A
100
AcDbEntity
  8
0
 62
1
100
AcDbCircle
 10
90
 20
5210
 30
0
 40
10
100
AcDbArc
 50
269.999999999994
 51
0
  0
ENDSEC
  0
SECTION
  2
OBJECTS
  0
DICTIONARY
  5
F00
330
0
100
AcDbDictionary
281
1
  3
ACAD_GROUP
350
F01
  3
ACAD_PLOTSTYLENAME
350
F02
  0
DICTIONARY
  5
F01
330
F00
100
AcDbDictionary
281
1
  0
ACDBDICTIONARYWDFLT
  5
F02
330
F00
100
AcDbDictionary
281
1
  3
Normal
350
F03
100
AcDbDictionaryWithDefault
340
F03
  0
ACDBPLACEHOLDER
  5
F03
330
F02
  0
ENDSEC
  0
EOF
