  0
SECTION
  2
HEADER
  9
$ACADVER
  1
AC1018
  9
$DWGCODEPAGE
  3
ANSI_1252
  9
$INSUNITS
 70
4
  9
$MEASUREMENT
 70
1
  9
$CLAYER
  8
JOONED
  9
$HANDSEED
  5
1501
  0
ENDSEC
  0
SECTION
  2
CLASSES
  0
ENDSEC
  0
SECTION
  2
TABLES
  0
TABLE
  2
VPORT
  5
8
330
0
100
AcDbSymbolTable
 70
1
  0
VPORT
  5
17
330
8
100
AcDbSymbolTableRecord
100
AcDbViewportTableRecord
  2
*Active
 70
0
 10
0
 20
0
 11
1
 21
1
 12
0
 22
0
 13
0
 23
0
 14
0.5
 24
0.5
 15
0.5
 25
0.5
 16
0
 26
0
 36
1
 17
0
 27
0
 37
0
 40
1000
 41
1.34
 42
50
 43
0
 44
0
 50
0
 51
0
 71
0
 72
1000
 73
1
 74
3
 75
0
 76
0
 77
0
 78
0
281
0
  0
ENDTAB
  0
TABLE
  2
LTYPE
  5
2
330
0
100
AcDbSymbolTable
 70
5
  0
LTYPE
  5
200
330
2
100
AcDbSymbolTableRecord
100
AcDbLinetypeTableRecord
  2
ByBlock
 70
0
  3

 72
65
 73
0
 40
0
  0
LTYPE
  5
201
330
2
100
AcDbSymbolTableRecord
100
AcDbLinetypeTableRecord
  2
ByLayer
 70
0
  3

 72
65
 73
0
 40
0
  0
LTYPE
  5
202
330
2
100
AcDbSymbolTableRecord
100
AcDbLinetypeTableRecord
  2
Continuous
 70
0
  3

 72
65
 73
0
 40
0
  0
LTYPE
  5
203
330
2
100
AcDbSymbolTableRecord
100
AcDbLinetypeTableRecord
  2
DASHED
 70
0
  3
Dashed
 72
65
 73
2
 40
15
 49
12
 74
0
 49
-3
 74
0
  0
LTYPE
  5
204
330
2
100
AcDbSymbolTableRecord
100
AcDbLinetypeTableRecord
  2
DASHDOT
 70
0
  3
Dash dot
 72
65
 73
4
 40
18
 49
12
 74
0
 49
-3
 74
0
 49
0
 74
0
 49
-3
 74
0
  0
ENDTAB
  0
TABLE
  2
LAYER
  5
1
330
0
100
AcDbSymbolTable
 70
5
  0
LAYER
  5
300
330
1
100
AcDbSymbolTableRecord
100
AcDbLayerTableRecord
  2
0
 70
0
 62
7
  6
Continuous
290
1
370
-3
390
F03
  0
LAYER
  5
301
330
1
100
AcDbSymbolTableRecord
100
AcDbLayerTableRecord
  2
JOONED
 70
0
 62
7
  6
Continuous
290
1
370
25
390
F03
  0
LAYER
  5
302
330
1
100
AcDbSymbolTableRecord
100
AcDbLayerTableRecord
  2
TELJED
 70
0
 62
4
  6
DASHDOT
290
1
370
13
390
F03
  0
LAYER
  5
303
330
1
100
AcDbSymbolTableRecord
100
AcDbLayerTableRecord
  2
SEINAD
 70
0
 62
6
  6
DASHED
290
1
370
50
390
F03
  0
LAYER
  5
304
330
1
100
AcDbSymbolTableRecord
100
AcDbLayerTableRecord
  2
VIIRUTUS
 70
0
 62
9
420
12632256
  6
Continuous
290
1
370
13
390
F03
1001
AcCmTransparency
1071
33554636
  0
ENDTAB
  0
TABLE
  2
STYLE
  5
5
330
0
100
AcDbSymbolTable
 70
2
  0
STYLE
  5
400
330
5
100
AcDbSymbolTableRecord
100
AcDbTextStyleTableRecord
  2
NORMAL
 70
0
 40
0
 41
1
 50
0
 71
0
 42
2.5
  3
Arial
  4

  0
STYLE
  5
401
330
5
100
AcDbSymbolTableRecord
100
AcDbTextStyleTableRecord
  2
Standard
 70
0
 40
0
 41
1
 50
0
 71
0
 42
2.5
  3
txt
  4

  0
ENDTAB
  0
TABLE
  2
VIEW
  5
7
330
0
100
AcDbSymbolTable
 70
0
  0
ENDTAB
  0
TABLE
  2
UCS
  5
6
330
0
100
AcDbSymbolTable
 70
0
  0
ENDTAB
  0
TABLE
  2
APPID
  5
3
330
0
100
AcDbSymbolTable
 70
2
  0
APPID
  5
2A
330
3
100
AcDbSymbolTableRecord
100
AcDbRegAppTableRecord
  2
ACAD
 70
0
  0
APPID
  5
2B
330
3
100
AcDbSymbolTableRecord
100
AcDbRegAppTableRecord
  2
AcCmTransparency
 70
0
  0
ENDTAB
  0
TABLE
  2
DIMSTYLE
  5
4
330
0
100
AcDbSymbolTable
 70
1
100
AcDbDimStyleTable
  0
DIMSTYLE
105
500
330
4
100
AcDbSymbolTableRecord
100
AcDbDimStyleTableRecord
  2
Standard
 70
0
 40
1
 41
250
 42
62.5
140
250
147
62.5
271
2
278
46
340
401
371
-1
372
-1
  0
ENDTAB
  0
TABLE
  2
BLOCK_RECORD
  5
9
330
0
100
AcDbSymbolTable
 70
3
  0
BLOCK_RECORD
  5
1A
330
9
100
AcDbSymbolTableRecord
100
AcDbBlockTableRecord
  2
*Model_Space
  0
BLOCK_RECORD
  5
1B
330
9
100
AcDbSymbolTableRecord
100
AcDbBlockTableRecord
  2
*Paper_Space
  0
BLOCK_RECORD
  5
602
330
9
100
AcDbSymbolTableRecord
100
AcDbBlockTableRecord
  2
*D1
  0
ENDTAB
  0
ENDSEC
  0
SECTION
  2
BLOCKS
  0
BLOCK
  5
18
330
1A
100
AcDbEntity
  8
0
100
AcDbBlockBegin
  2
*Model_Space
 70
0
 10
0
 20
0
 30
0
  3
*Model_Space
  1

  0
ENDBLK
  5
19
330
1A
100
AcDbEntity
  8
0
100
AcDbBlockEnd
  0
BLOCK
  5
1C
330
1B
100
AcDbEntity
  8
0
100
AcDbBlockBegin
  2
*Paper_Space
 70
0
 10
0
 20
0
 30
0
  3
*Paper_Space
  1

  0
ENDBLK
  5
1D
330
1B
100
AcDbEntity
  8
0
100
AcDbBlockEnd
  0
BLOCK
  5
700
330
602
100
AcDbEntity
  8
0
100
AcDbBlockBegin
  2
*D1
 70
0
 10
0
 20
0
 30
0
  3
*D1
  1

  0
ENDBLK
  5
701
330
602
100
AcDbEntity
  8
0
100
AcDbBlockEnd
  0
ENDSEC
  0
SECTION
  2
ENTITIES
  0
LINE
  5
1000
330
1A
100
AcDbEntity
  8
TELJED
 62
30
  6
DASHED
370
70
440
33554585
100
AcDbLine
 10
-200
 20
-600
 30
0
 11
5000
 21
-600
 31
0
  0
LINE
  5
1001
330
1A
100
AcDbEntity
  8
JOONED
 62
152
420
681180
370
35
440
33554649
100
AcDbLine
 10
0
 20
250
 30
0
 11
5000
 21
250
 31
0
  0
LINE
  5
1002
330
1A
100
AcDbEntity
  8
JOONED
100
AcDbLine
 10
0
 20
500
 30
0
 11
5000
 21
500
 31
0
  0
LINE
  5
1003
330
1A
100
AcDbEntity
  8
TELJED
100
AcDbLine
 10
0
 20
750
 30
0
 11
5000
 21
750
 31
0
  0
LINE
  5
1004
330
1A
100
AcDbEntity
  8
JOONED
100
AcDbLine
 10
0
 20
1000
 30
0
 11
5000
 21
1000
 31
0
  0
LINE
  5
1005
330
1A
100
AcDbEntity
  8
JOONED
100
AcDbLine
 10
0
 20
1250
 30
0
 11
5000
 21
1250
 31
0
  0
LINE
  5
1006
330
1A
100
AcDbEntity
  8
TELJED
100
AcDbLine
 10
0
 20
1500
 30
0
 11
5000
 21
1500
 31
0
  0
LINE
  5
1007
330
1A
100
AcDbEntity
  8
JOONED
100
AcDbLine
 10
0
 20
1750
 30
0
 11
5000
 21
1750
 31
0
  0
LINE
  5
1008
330
1A
100
AcDbEntity
  8
JOONED
100
AcDbLine
 10
0
 20
2000
 30
0
 11
5000
 21
2000
 31
0
  0
LINE
  5
1009
330
1A
100
AcDbEntity
  8
TELJED
100
AcDbLine
 10
0
 20
2250
 30
0
 11
5000
 21
2250
 31
0
  0
LINE
  5
100A
330
1A
100
AcDbEntity
  8
JOONED
100
AcDbLine
 10
0
 20
2500
 30
0
 11
5000
 21
2500
 31
0
  0
LINE
  5
100B
330
1A
100
AcDbEntity
  8
JOONED
100
AcDbLine
 10
0
 20
2750
 30
0
 11
5000
 21
2750
 31
0
  0
LWPOLYLINE
  5
1100
330
1A
100
AcDbEntity
  8
SEINAD
100
AcDbPolyline
 90
3
 70
1
 10
0
 20
3000
 42
0.414213562373095
 10
300
 20
3300
 10
0
 20
3600
  0
LWPOLYLINE
  5
1101
330
1A
100
AcDbEntity
  8
SEINAD
100
AcDbPolyline
 90
3
 70
1
 10
450
 20
3000
 42
0.414213562373095
 10
750
 20
3300
 42
-0.414213562373095
 10
450
 20
3600
  0
LWPOLYLINE
  5
1102
330
1A
100
AcDbEntity
  8
SEINAD
100
AcDbPolyline
 90
4
 70
1
 10
900
 20
3000
 10
1200
 20
3000
 10
1200
 20
3300
 10
900
 20
3300
  0
LWPOLYLINE
  5
1103
330
1A
100
AcDbEntity
  8
SEINAD
100
AcDbPolyline
 90
4
 70
1
 10
1350
 20
3000
 10
1650
 20
3000
 10
1650
 20
3300
 10
1350
 20
3300
  0
LWPOLYLINE
  5
1104
330
1A
100
AcDbEntity
  8
SEINAD
100
AcDbPolyline
 90
4
 70
1
 10
1800
 20
3000
 10
2100
 20
3000
 10
2100
 20
3300
 10
1800
 20
3300
  0
LWPOLYLINE
  5
1105
330
1A
100
AcDbEntity
  8
SEINAD
100
AcDbPolyline
 90
4
 70
1
 10
2250
 20
3000
 10
2550
 20
3000
 10
2550
 20
3300
 10
2250
 20
3300
  0
LWPOLYLINE
  5
1106
330
1A
100
AcDbEntity
  8
SEINAD
100
AcDbPolyline
 90
4
 70
1
 10
2700
 20
3000
 10
3000
 20
3000
 10
3000
 20
3300
 10
2700
 20
3300
  0
LWPOLYLINE
  5
1107
330
1A
100
AcDbEntity
  8
SEINAD
100
AcDbPolyline
 90
4
 70
1
 10
3150
 20
3000
 10
3450
 20
3000
 10
3450
 20
3300
 10
3150
 20
3300
  0
LWPOLYLINE
  5
1108
330
1A
100
AcDbEntity
  8
SEINAD
100
AcDbPolyline
 90
4
 70
0
 10
3600
 20
3000
 10
3900
 20
3000
 10
3900
 20
3300
 10
3600
 20
3300
  0
TEXT
  5
1200
330
1A
100
AcDbEntity
  8
JOONED
100
AcDbText
 10
0
 20
3900
 30
0
 40
180
  1
F109 TEXT 1
 50
0
  7
Standard
100
AcDbText
  0
TEXT
  5
1201
330
1A
100
AcDbEntity
  8
JOONED
100
AcDbText
 10
500
 20
3900
 30
0
 40
180
  1
F109 TEXT 2
 50
0
  7
NORMAL
100
AcDbText
  0
TEXT
  5
1202
330
1A
100
AcDbEntity
  8
JOONED
100
AcDbText
 10
1000
 20
3900
 30
0
 40
180
  1
F109 TEXT 3
 50
0
  7
Standard
100
AcDbText
  0
TEXT
  5
1203
330
1A
100
AcDbEntity
  8
JOONED
100
AcDbText
 10
1500
 20
3900
 30
0
 40
180
  1
F109 TEXT 4
 50
0
  7
NORMAL
100
AcDbText
  0
TEXT
  5
1204
330
1A
100
AcDbEntity
  8
JOONED
100
AcDbText
 10
2000
 20
3900
 30
0
 40
180
  1
F109 TEXT 5
 50
0
  7
Standard
100
AcDbText
  0
TEXT
  5
1205
330
1A
100
AcDbEntity
  8
JOONED
100
AcDbText
 10
2500
 20
3900
 30
0
 40
180
  1
F109 TEXT 6
 50
0
  7
NORMAL
100
AcDbText
  0
TEXT
  5
1206
330
1A
100
AcDbEntity
  8
JOONED
100
AcDbText
 10
3000
 20
3900
 30
0
 40
180
  1
F109 TEXT 7
 50
0
  7
Standard
100
AcDbText
  0
TEXT
  5
1207
330
1A
100
AcDbEntity
  8
JOONED
100
AcDbText
 10
3500
 20
3900
 30
0
 40
180
  1
F109 TEXT 8
 50
0
  7
NORMAL
100
AcDbText
  0
TEXT
  5
1208
330
1A
100
AcDbEntity
  8
JOONED
100
AcDbText
 10
4000
 20
3900
 30
0
 40
180
  1
F109 TEXT 9
 50
0
  7
Standard
100
AcDbText
  0
TEXT
  5
1209
330
1A
100
AcDbEntity
  8
JOONED
100
AcDbText
 10
4500
 20
4400
 30
0
 40
180
  1
M\U+00D5\U+00D5T \U+0160\U+017D\U+20AC 10
 50
0
  7
NORMAL
100
AcDbText
  0
HATCH
  5
1300
330
1A
100
AcDbEntity
  8
VIIRUTUS
100
AcDbHatch
 10
0
 20
0
 30
0
210
0
220
0
230
1
  2
SOLID
 70
1
 71
0
 91
1
 92
3
 72
0
 73
1
 93
4
 10
5200
 20
3000
 10
5380
 20
3000
 10
5380
 20
3240
 10
5200
 20
3240
 97
0
 75
1
 76
1
 98
0
  0
HATCH
  5
1301
330
1A
100
AcDbEntity
  8
VIIRUTUS
100
AcDbHatch
 10
0
 20
0
 30
0
210
0
220
0
230
1
  2
F109_1
 70
0
 71
0
 91
1
 92
3
 72
0
 73
1
 93
4
 10
5450
 20
3000
 10
5630
 20
3000
 10
5630
 20
3240
 10
5450
 20
3240
 97
0
 75
1
 76
0
 52
0
 41
1
 77
0
 78
1
 53
45
 43
0
 44
0
 45
0
 46
3.175
 79
0
 98
0
  0
HATCH
  5
1302
330
1A
100
AcDbEntity
  8
VIIRUTUS
100
AcDbHatch
 10
0
 20
0
 30
0
210
0
220
0
230
1
  2
F109_2
 70
0
 71
0
 91
1
 92
3
 72
0
 73
1
 93
4
 10
5700
 20
3000
 10
5880
 20
3000
 10
5880
 20
3240
 10
5700
 20
3240
 97
0
 75
1
 76
0
 52
0
 41
1
 77
0
 78
1
 53
45
 43
0
 44
0
 45
0
 46
3.175
 79
0
 98
0
  0
HATCH
  5
1303
330
1A
100
AcDbEntity
  8
VIIRUTUS
100
AcDbHatch
 10
0
 20
0
 30
0
210
0
220
0
230
1
  2
F109_3
 70
0
 71
0
 91
1
 92
3
 72
0
 73
1
 93
4
 10
5950
 20
3000
 10
6130
 20
3000
 10
6130
 20
3240
 10
5950
 20
3240
 97
0
 75
1
 76
0
 52
0
 41
1
 77
0
 78
1
 53
45
 43
0
 44
0
 45
0
 46
3.175
 79
0
 98
0
  0
HATCH
  5
1304
330
1A
100
AcDbEntity
  8
VIIRUTUS
100
AcDbHatch
 10
0
 20
0
 30
0
210
0
220
0
230
1
  2
F109_4
 70
0
 71
0
 91
1
 92
3
 72
0
 73
1
 93
4
 10
6200
 20
3000
 10
6380
 20
3000
 10
6380
 20
3240
 10
6200
 20
3240
 97
0
 75
1
 76
0
 52
0
 41
1
 77
0
 78
1
 53
45
 43
0
 44
0
 45
0
 46
3.175
 79
0
 98
0
  0
HATCH
  5
1305
330
1A
100
AcDbEntity
  8
VIIRUTUS
100
AcDbHatch
 10
0
 20
0
 30
0
210
0
220
0
230
1
  2
F109_5
 70
0
 71
0
 91
1
 92
3
 72
0
 73
1
 93
4
 10
6450
 20
3000
 10
6630
 20
3000
 10
6630
 20
3240
 10
6450
 20
3240
 97
0
 75
1
 76
0
 52
0
 41
1
 77
0
 78
1
 53
45
 43
0
 44
0
 45
0
 46
3.175
 79
0
 98
0
  0
HATCH
  5
1306
330
1A
100
AcDbEntity
  8
VIIRUTUS
100
AcDbHatch
 10
0
 20
0
 30
0
210
0
220
0
230
1
  2
F109_6
 70
0
 71
0
 91
1
 92
3
 72
0
 73
1
 93
4
 10
6700
 20
3000
 10
6880
 20
3000
 10
6880
 20
3240
 10
6700
 20
3240
 97
0
 75
1
 76
0
 52
0
 41
1
 77
0
 78
1
 53
45
 43
0
 44
0
 45
0
 46
3.175
 79
0
 98
0
  0
CIRCLE
  5
1400
330
1A
100
AcDbEntity
  8
JOONED
100
AcDbCircle
 10
7500
 20
0
 30
0
 40
366.6667
  0
DIMENSION
  5
1500
330
1A
100
AcDbEntity
  8
JOONED
100
AcDbDimension
  2
*D1
 10
0
 20
4400
 30
0
 11
2500
 21
4400
 31
0
 70
1
  1
<>
  3
Standard
 42
5000
100
AcDbAlignedDimension
 13
0
 23
4000
 33
0
 14
5000
 24
4000
 34
0
  0
ENDSEC
  0
SECTION
  2
OBJECTS
  0
DICTIONARY
  5
F00
330
0
100
AcDbDictionary
281
1
  3
ACAD_GROUP
350
F01
  3
ACAD_PLOTSTYLENAME
350
F02
  0
DICTIONARY
  5
F01
330
F00
100
AcDbDictionary
281
1
  0
ACDBDICTIONARYWDFLT
  5
F02
330
F00
100
AcDbDictionary
281
1
  3
Normal
350
F03
100
AcDbDictionaryWithDefault
340
F03
  0
ACDBPLACEHOLDER
  5
F03
330
F02
  0
ENDSEC
  0
EOF
